<svg id="stroked_search" xmlns="http://www.w3.org/2000/svg" width="15" height="15" viewBox="0 0 15 15" style=""><defs><style>.cls-1{fill: rgb(136,136,136)}</style></defs><title>SF_Pro_Form_Icons_v4f-Single-Set</title><path id="stroked_search-2" data-name="stroked_search" fill="rgb(136,136,136)" transform="translate(-3, -15)" d="M18,29.293l-4.438-4.407C14.457,23.838,15,22.481,15,20.999C15,17.691,12.309,15,9,15   s-6,2.691-6,5.999C3,24.308,5.691,27,9,27c1.467,0,2.811-0.531,3.854-1.408L17.293,30L18,29.293z M9,26c-2.762,0-5-2.241-5-5.001   C4,18.238,6.238,16,9,16c2.761,0,5,2.238,5,4.999C14,23.759,11.761,26,9,26z"/></svg>